<svg width="166" height="166" viewBox="0 0 166 166" fill="none" xmlns="http://www.w3.org/2000/svg">
    <g transform="translate(3.9524 0) scale(3.95238)">
        <path
            fill="currentColor"
            d="M5.17 30.94L7.36 31.76L8.92 34.30L9.95 34.17L13.53 31.11L19.22 23.87L23.54 21.67L26.34 22.40L27.07 25.59L25.52 23.87L23.62 24.21L22.33 25.85L22.41 27.88L24.53 29.73L27.20 29.73L29.83 26.46L28.41 24.26L29.31 21.50L31.90 17.70L38.33 14.12L38.50 12.09L34.19 11.97L31.26 10.33L28.50 10.76L23.79 8.13L15.99 7.70L6.85 5.63L2.32 7.48L1.50 8.82L2.45 12.35L7.84 13.26L9.39 14.55L7.71 16.36L7.19 20.76L5.64 21.45L6.85 23.82L5.77 25.64L6.46 27.27Z"
        />
        <path
            fill="currentColor"
            d="M27.33 30.29L24.57 30.85L19.96 30.21L17.54 30.42L15.21 31.59L10.34 35.64L11.07 36.24L12.02 36.37L13.75 34.86L17.02 33.48L22.07 34.04L23.49 32.32L26.17 31.41Z"
        />
    </g>
</svg>
